<svg width="100" height="79" version="1.1" xmlns="http://www.w3.org/2000/svg" desc="Created with imagetracer.js version 1.2.6" ><path fill="rgb(207,0,116)" stroke="rgb(207,0,116)" stroke-width="1" opacity="0.6039215686274509" d="M 2.5 0 L 75.5 0 L 78 2.5 L 78 77.5 L 76.5 79 L 75 78.5 L 77 76.5 L 77 2.5 L 75.5 1 L 2.5 1 L 0 2.5 L 2.5 0 Z " /><path fill="rgb(207,0,116)" stroke="rgb(207,0,116)" stroke-width="1" opacity="0.6039215686274509" d="M 84.5 0 L 92.5 3 L 97.5 0 L 97.5 1 L 90.5 4 L 84.5 1 L 84.5 0 Z " /><path fill="rgb(207,0,116)" stroke="rgb(207,0,116)" stroke-width="1" opacity="0.6039215686274509" d="M 84.5 2 L 89 5.5 L 87.5 8 L 84.5 10 L 86.5 7 Q 89.1 7.7 88 5 L 84.5 2 Z " /><path fill="rgb(207,0,116)" stroke="rgb(207,0,116)" stroke-width="1" opacity="0.6039215686274509" d="M 99.5 2 L 97.5 5 Q 95.3 4.3 96 6.5 L 100 9.5 L 98.5 9 L 94 6.5 L 99.5 2 Z " /><path fill="rgb(207,0,116)" stroke="rgb(207,0,116)" stroke-width="1" opacity="0.6039215686274509" d="M 91.5 8 L 97.5 12 L 100 12 L 100 24.5 L 98.5 26 L 85.5 26 L 84 24.5 L 84 13.5 L 87 13 L 86.5 19 L 85.5 14 L 85 25 L 99 25 L 99 14.5 L 98 14.5 L 97.5 22 L 97 12.5 L 95.5 11 L 91.5 9 L 84.5 12 L 84.5 11 L 91.5 8 Z " /><path fill="rgb(207,0,116)" stroke="rgb(207,0,116)" stroke-width="1" opacity="0.6039215686274509" d="M 90 14 L 93 14.5 L 91 15 L 90.5 22 L 90 14 Z " /><path fill="rgb(207,0,116)" stroke="rgb(207,0,116)" stroke-width="1" opacity="0.6039215686274509" d="M 84.5 27 L 85 40 L 87 40.5 L 84 41 L 84.5 27 Z " /><path fill="rgb(207,0,116)" stroke="rgb(207,0,116)" stroke-width="1" opacity="0.6039215686274509" d="M 99.5 34 L 100 36 L 87 35.5 L 98.5 35 L 99.5 34 Z " /><path fill="rgb(207,0,116)" stroke="rgb(207,0,116)" stroke-width="1" opacity="0.6039215686274509" d="M 0.5 76 L 1 78 L 3 78.5 L 1.5 79 L 0.5 76 Z " /><path fill="rgb(207,0,117)" stroke="rgb(207,0,117)" stroke-width="1" opacity="0.996078431372549" d="M 98.5 0 Q 102 2 97.5 4 L 98.5 0 Z " /><path fill="rgb(207,0,117)" stroke="rgb(207,0,117)" stroke-width="1" opacity="0.996078431372549" d="M 75.5 1 L 76.5 3 L 75.5 1 Z " /><path fill="rgb(207,0,117)" stroke="rgb(207,0,117)" stroke-width="1" opacity="0.996078431372549" d="M 95.5 4 L 94.5 6 L 95.5 4 Z " /><path fill="rgb(207,0,117)" stroke="rgb(207,0,117)" stroke-width="1" opacity="0.996078431372549" d="M 95.5 7 L 96.5 9 L 95.5 7 Z " /><path fill="rgb(207,0,117)" stroke="rgb(207,0,117)" stroke-width="1" opacity="0.996078431372549" d="M 98.5 9 L 100 11.5 L 99 11.5 L 98.5 9 Z " /><path fill="rgb(207,0,117)" stroke="rgb(207,0,117)" stroke-width="1" opacity="0.996078431372549" d="M 96.5 10 L 97.5 12 L 96.5 10 Z " /><path fill="rgb(207,0,117)" stroke="rgb(207,0,117)" stroke-width="1" opacity="0.996078431372549" d="M 92.5 15 L 93 22 L 98 22.5 L 92 23 L 92.5 15 Z " /><path fill="rgb(207,0,117)" stroke="rgb(207,0,117)" stroke-width="1" opacity="0.996078431372549" d="M 86.5 19 L 87 22 L 91 22.5 L 86 23 L 86.5 19 Z " /><path fill="rgb(207,0,117)" stroke="rgb(207,0,117)" stroke-width="1" opacity="0.996078431372549" d="M 85.5 27 L 86.5 29 L 85.5 27 Z " /><path fill="rgb(207,0,117)" stroke="rgb(207,0,117)" stroke-width="1" opacity="0.996078431372549" d="M 87.5 32 L 98.5 32 L 100 33.5 L 98.5 33 L 87.5 33 L 87.5 32 Z " /><path fill="rgb(207,0,117)" stroke="rgb(207,0,117)" stroke-width="1" opacity="0.996078431372549" d="M 3.5 78 L 75 78.5 L 3.5 79 L 3.5 78 Z " /><path fill="rgb(207,0,117)" stroke="rgb(207,0,117)" stroke-width="1" opacity="1" d="M 3.5 1 L 74.5 1 L 77 3.5 L 77 76.5 L 75.5 78 L 2.5 78 L 1 76.5 L 0 74.5 L 0 4.5 L 1 2 L 3.5 1 Z M 43 35 L 42 36 Q 38 35 40 40 L 42 41 L 51 41 L 51 69 L 54 72 Q 58 73 59 70 L 59 41 L 70 41 L 71 39 L 70 37 L 69 35 L 43 35 Z M 21 47 L 19 49 L 19 51 L 26 51 L 27 53 L 27 71 L 29 72 L 32 71 L 32 52 Q 32 50 39 51 Q 41 50 39 49 L 39 47 L 21 47 Z " /><path fill="rgb(207,0,117)" stroke="rgb(207,0,117)" stroke-width="1" opacity="1" d="M 85 1 L 91.5 5 L 98.5 1 L 96.5 4 L 94 5.5 L 96.5 9 L 99 10.5 L 98.5 12 L 90.5 8 L 85 11 Q 83.9 8.3 86.5 9 L 90 7 Q 91.1 4.3 88.5 5 L 85 3 L 85 1 Z " /><path fill="rgb(207,0,117)" stroke="rgb(207,0,117)" stroke-width="1" opacity="1" d="M 85.5 14 L 86 23 L 91 23 L 91 15.5 L 92 15.5 L 92 23 L 98 23 L 98.5 14 L 99 25 L 85 25 L 85.5 14 Z " /><path fill="rgb(207,0,117)" stroke="rgb(207,0,117)" stroke-width="1" opacity="1" d="M 85.5 28 Q 88 29.2 87 33 L 98.5 33 L 99 35 L 87.5 35 L 87 38.5 L 85 39.5 L 85.5 28 Z " /><path fill="rgb(12,5,0)" stroke="rgb(12,5,0)" stroke-width="1" opacity="0.7843137254901961" d="M 89 43 L 99.5 43 L 100 44.5 L 98.5 46 L 91 46 L 92.5 50 L 99.5 50 L 100 51.5 L 98.5 53 L 89.5 53 Q 86.8 51.7 89 50.5 L 88 45.5 L 89 43 Z " /><path fill="rgb(12,5,0)" stroke="rgb(12,5,0)" stroke-width="1" opacity="0.7843137254901961" d="M 91.5 55 L 95 56.5 Q 93.5 63.5 96.5 63 L 98 59.5 L 96 56.5 Q 98 53 100 57.5 Q 101 64 97.5 66 Q 90.5 67.5 89 63.5 L 88 59.5 L 91.5 55 Z M 93 58 L 91 60 Q 90 64 93 63 L 93 58 Z " /><path fill="rgb(12,5,0)" stroke="rgb(12,5,0)" stroke-width="1" opacity="0.7843137254901961" d="M 85.5 66 L 87 66 L 87 71 L 99.5 71 L 100 74 L 87 74 L 87 79 L 85.5 79 L 84 77.5 L 84 67.5 L 85.5 66 Z " /><path fill="rgb(0,0,0)" stroke="rgb(0,0,0)" stroke-width="1" opacity="0" d="M 0 0 L 2 0.5 L 0 1.5 L 0 0 Z " /><path fill="rgb(0,0,0)" stroke="rgb(0,0,0)" stroke-width="1" opacity="0" d="M 76.5 0 L 83.5 0 L 84 2.5 L 88 5 Q 89.1 7.7 86.5 7 Q 83.3 8.2 84 12 L 92.5 9 L 97 12.5 L 97 22 L 93 22 L 93 14 L 90 14 L 90 22 L 87 22 L 87 13 L 84 13 L 84 24.5 L 85.5 26 L 98.5 26 L 99.5 25 L 100 32 L 87.5 32 L 87 27 L 84 27 L 84 40.5 L 87 41 L 87 36 L 100 36 L 100 43 L 89.5 43 L 89 44.5 L 88 47.5 L 89 50.5 Q 86.8 51.7 89.5 53 L 98.5 53 L 99.5 52 L 100 56.5 L 97.5 55 L 96 56.5 L 98 61.5 L 95 63 Q 96.8 56.9 93.5 55 Q 89.5 54.5 89 57.5 L 88 61.5 L 91.5 66 Q 97.5 67.5 99 64.5 L 99.5 63 L 100 71 L 87 71 L 87 66 L 85.5 66 L 84 67.5 L 84 77.5 L 84.5 79 L 77 78.5 L 78 77.5 L 78 2.5 L 76.5 0 Z " /><path fill="rgb(0,0,0)" stroke="rgb(0,0,0)" stroke-width="1" opacity="0" d="M 87.5 0 L 96 0.5 L 91.5 3 L 87.5 1 L 87.5 0 Z " /><path fill="rgb(0,0,0)" stroke="rgb(0,0,0)" stroke-width="1" opacity="0" d="M 99.5 3 L 100 8.5 L 98.5 8 L 96 6.5 Q 95.3 4.3 97.5 5 L 99.5 3 Z " /><path fill="rgb(0,0,0)" stroke="rgb(0,0,0)" stroke-width="1" opacity="0" d="M 99.5 45 L 100 50 L 92.5 50 L 91 48.5 L 91.5 46 L 98.5 46 L 99.5 45 Z " /><path fill="rgb(0,0,0)" stroke="rgb(0,0,0)" stroke-width="1" opacity="0" d="M 92.5 58 L 93 63 Q 89.7 64.3 91 59.5 L 92.5 58 Z " /><path fill="rgb(0,0,0)" stroke="rgb(0,0,0)" stroke-width="1" opacity="0" d="M 87 74 L 100 74 L 100 79 L 87 79 L 87 74 Z " /><path fill="rgb(253,236,244)" stroke="rgb(253,236,244)" stroke-width="1" opacity="1" d="M 42.5 35 L 68.5 35 L 70 36.5 L 71 38.5 L 70 41 L 59 41 L 59 69.5 Q 58.3 72.8 53.5 72 L 51 68.5 L 51 41 L 41.5 41 L 40 39.5 Q 38.5 35.1 41.5 36 L 42.5 35 Z " /><path fill="rgb(253,236,244)" stroke="rgb(253,236,244)" stroke-width="1" opacity="1" d="M 20.5 47 L 38.5 47 L 39 48.5 Q 41.3 49.7 38.5 51 Q 32.3 50.3 32 51.5 L 32 70.5 L 28.5 72 L 27 70.5 L 27 52.5 L 25.5 51 L 19 51 L 19 48.5 L 20.5 47 Z " /></svg>